# xmcd
#
# Track frame offsets: 
#        150
#        16728
#        29733
#        42653
#        57890
#        84854
#        95872
#        115212
#        133623
#
# Disc length: 2059 seconds
#
# Revision: 0
# Processed by: cddbd v1.5.2PL0 Copyright (c) Steve Scherf et al.
# Submitted via: ExactAudioCopy v0.99pb3
#
DISCID=75080909
DTITLE=Mark Nomad - Electric Church
DYEAR=2007
DGENRE=Blues
TTITLE0=Stateside Morals
TTITLE1=Angel Boy
TTITLE2=Suite Freedom
TTITLE3=Heard Someone Call
TTITLE4=Mists Of Avalon
TTITLE5=Come Back Baby 
TTITLE6=All My Whole Life
TTITLE7=It's All Gonna Change
TTITLE8=Hannah Life
EXTD=
EXTT0=
EXTT1=
EXTT2=
EXTT3=
EXTT4=
EXTT5=
EXTT6=
EXTT7=
EXTT8=
PLAYORDER=
